<?xml version="1.0" standalone="no"?>
<!DOCTYPE svg PUBLIC "-//W3C//DTD SVG 20010904//EN"
 "http://www.w3.org/TR/2001/REC-SVG-20010904/DTD/svg10.dtd">
<svg version="1.0" xmlns="http://www.w3.org/2000/svg"
 width="200.000000pt" height="200.000000pt" viewBox="0 0 200.000000 200.000000"
 preserveAspectRatio="xMidYMid meet">

<g transform="translate(0.000000,200.000000) scale(0.100000,-0.100000)"
fill="#000000" stroke="none">
<path d="M0 1000 l0 -1000 1000 0 1000 0 0 1000 0 1000 -1000 0 -1000 0 0
-1000z m1036 512 c33 -22 47 -142 23 -195 -15 -34 -52 -50 -83 -36 -33 15 -46
49 -46 120 0 85 20 119 70 119 14 0 30 -4 36 -8z m-288 -59 c-9 -2 -20 -13
-23 -24 -4 -11 -9 -18 -12 -16 -10 10 18 47 35 46 16 -1 16 -2 0 -6z m63 -4
c23 -12 79 -96 79 -118 0 -8 -12 9 -26 38 -16 31 -40 61 -58 72 -33 20 -29 27
5 8z m469 -8 c18 -34 11 -90 -16 -137 -57 -97 -154 -97 -154 -1 0 45 37 117
72 142 32 22 85 20 98 -4z m-545 -123 c3 -7 -1 -4 -9 6 -9 11 -16 29 -15 40 1
17 2 16 9 -6 4 -14 11 -32 15 -40z m41 -49 c24 -26 25 -30 7 -20 -13 6 -27 20
-33 31 -15 28 -8 25 26 -11z m-209 -1 c-12 -13 -24 -19 -26 -14 -2 5 4 15 15
23 28 21 35 15 11 -9z m129 -4 c24 -14 49 -36 56 -47 7 -14 -3 -9 -33 16 -24
21 -57 41 -74 46 -17 5 -22 10 -12 10 10 1 38 -11 63 -25z m745 16 c21 -12 26
-59 8 -91 -6 -11 -31 -34 -57 -50 -53 -33 -115 -39 -144 -12 -74 67 98 203
193 153z m-566 -30 c-10 -11 -29 -19 -44 -19 -26 2 -26 2 2 6 15 3 33 13 39
23 7 11 14 17 17 15 2 -3 -4 -14 -14 -25z m-271 -99 c20 -13 49 -27 64 -31 21
-6 23 -8 6 -9 -11 -1 -41 12 -66 28 -46 29 -68 57 -68 83 1 7 7 -1 14 -18 8
-17 30 -41 50 -53z m150 -22 c-9 -10 -24 -19 -33 -19 -10 0 -7 5 9 13 16 8 27
23 29 42 4 27 5 27 9 7 2 -13 -4 -32 -14 -43z m-214 -70 c-13 -6 -33 -17 -42
-26 -10 -9 -18 -13 -18 -10 0 14 45 47 64 46 19 0 18 -1 -4 -10z m158 -9 c12
-12 22 -24 22 -27 0 -3 -8 1 -18 10 -9 9 -29 20 -42 26 -22 9 -23 10 -4 10 11
1 30 -8 42 -19z m787 8 c46 -21 46 -95 0 -116 -33 -15 -136 -16 -168 -1 -52
24 -54 93 -3 117 29 15 139 15 171 0z m-945 -117 c22 -9 23 -10 4 -10 -19 -1
-64 32 -64 46 0 3 8 -1 18 -10 9 -9 29 -20 42 -26z m180 34 c0 -12 -46 -45
-64 -45 -16 1 -14 4 10 14 18 8 35 19 38 25 7 11 16 15 16 6z m32 -102 c74
-67 -98 -203 -193 -153 -21 12 -26 59 -8 91 6 11 31 34 57 50 53 33 115 39
144 12z m640 -12 c26 -16 51 -39 57 -50 18 -32 13 -79 -8 -91 -73 -38 -211 38
-211 116 0 59 87 72 162 25z m-520 -108 c29 -26 24 -90 -11 -145 -33 -53 -56
-68 -100 -68 -105 0 -33 227 73 230 11 0 28 -7 38 -17z m337 2 c59 -30 99
-142 71 -196 -12 -21 -59 -26 -91 -8 -35 18 -79 99 -79 143 0 68 40 92 99 61z
m-159 -57 c16 -18 20 -35 20 -97 -1 -79 -9 -99 -47 -120 -18 -9 -28 -9 -45 0
-39 21 -47 41 -48 120 0 87 19 119 70 119 17 0 38 -9 50 -22z"/>
<path d="M630 863 c-52 -34 -80 -67 -80 -93 0 -35 17 -50 57 -50 91 0 187 102
141 148 -17 17 -90 15 -118 -5z"/>
<path d="M792 745 c-54 -38 -91 -152 -60 -183 32 -32 94 2 128 69 45 88 1 162
-68 114z"/>
</g>
</svg>
